<svg width="250" height="303" viewBox="0 0 250 303" fill="none" xmlns="http://www.w3.org/2000/svg">
<path d="M222.5 113.132C222.5 109.429 218.915 106.784 215.377 107.877L44.3775 160.672C42.0723 161.383 40.5 163.514 40.5 165.927V294.368C40.5 298.071 44.0847 300.716 47.6225 299.623L218.623 246.828C220.928 246.117 222.5 243.986 222.5 241.573V113.132Z" fill="#161616" stroke="#31ECAA"/>
<path d="M58.6761 248L48.3807 213.091H58.9489L63.7216 234.568H63.9943L69.6534 213.091H77.9716L83.6307 234.636H83.9034L88.6761 213.091H99.2443L88.9489 248H79.8807L73.9489 228.5H73.6761L67.7443 248H58.6761ZM133.928 230.545C133.928 234.432 133.172 237.71 131.661 240.381C130.149 243.04 128.109 245.057 125.541 246.432C122.973 247.795 120.109 248.477 116.95 248.477C113.768 248.477 110.893 247.79 108.325 246.415C105.768 245.028 103.734 243.006 102.223 240.347C100.723 237.676 99.973 234.409 99.973 230.545C99.973 226.659 100.723 223.386 102.223 220.727C103.734 218.057 105.768 216.04 108.325 214.676C110.893 213.301 113.768 212.614 116.95 212.614C120.109 212.614 122.973 213.301 125.541 214.676C128.109 216.04 130.149 218.057 131.661 220.727C133.172 223.386 133.928 226.659 133.928 230.545ZM124.178 230.545C124.178 228.455 123.899 226.693 123.342 225.261C122.797 223.818 121.984 222.727 120.905 221.989C119.837 221.239 118.518 220.864 116.95 220.864C115.382 220.864 114.058 221.239 112.979 221.989C111.911 222.727 111.098 223.818 110.541 225.261C109.996 226.693 109.723 228.455 109.723 230.545C109.723 232.636 109.996 234.403 110.541 235.847C111.098 237.278 111.911 238.369 112.979 239.119C114.058 239.858 115.382 240.227 116.95 240.227C118.518 240.227 119.837 239.858 120.905 239.119C121.984 238.369 122.797 237.278 123.342 235.847C123.899 234.403 124.178 232.636 124.178 230.545ZM138.312 248V213.091H153.381C155.972 213.091 158.239 213.562 160.182 214.506C162.125 215.449 163.636 216.807 164.716 218.58C165.795 220.352 166.335 222.477 166.335 224.955C166.335 227.455 165.778 229.562 164.665 231.278C163.563 232.994 162.011 234.29 160.011 235.165C158.023 236.04 155.699 236.477 153.04 236.477H144.04V229.114H151.131C152.244 229.114 153.193 228.977 153.977 228.705C154.773 228.42 155.381 227.972 155.801 227.358C156.233 226.744 156.449 225.943 156.449 224.955C156.449 223.955 156.233 223.142 155.801 222.517C155.381 221.881 154.773 221.415 153.977 221.119C153.193 220.812 152.244 220.659 151.131 220.659H147.79V248H138.312ZM158.767 231.977L167.494 248H157.199L148.676 231.977H158.767ZM170.375 248V213.091H179.852V227.205H180.33L190.83 213.091H201.875L190.08 228.636L202.148 248H190.83L182.989 234.909L179.852 239V248H170.375Z" fill="white"/>
<path d="M14 61.7513C14 57.8271 17.7049 54.9592 21.5038 55.9428L218.504 106.947C221.151 107.632 223 110.021 223 112.755V241.649C223 245.573 219.295 248.441 215.496 247.457L18.4962 196.453C15.8489 195.768 14 193.379 14 190.645V61.7513Z" fill="url(#paint0_linear_526_109)"/>
<path d="M196.5 8.14771C196.5 4.44081 192.908 1.79539 189.368 2.89551L18.3677 56.0381C16.0674 56.753 14.5 58.8815 14.5 61.2903V190.652C14.5 194.359 18.0924 197.005 21.6322 195.904L192.632 142.762C194.933 142.047 196.5 139.919 196.5 137.51V8.14771Z" fill="#1CCDAA" stroke="black"/>
<path d="M60.7727 67.4545V114H50.2273L33.4091 89.5455H33.1364V114H20.5V67.4545H31.2273L47.7727 91.8182H48.1364V67.4545H60.7727ZM66.75 114V67.4545H100.295V77.6364H79.3864V85.6364H98.5682V95.8182H79.3864V103.818H100.205V114H66.75ZM151.653 90.7273C151.653 95.9091 150.646 100.28 148.631 103.841C146.616 107.386 143.896 110.076 140.472 111.909C137.047 113.727 133.229 114.636 129.017 114.636C124.775 114.636 120.941 113.72 117.517 111.886C114.108 110.038 111.396 107.341 109.381 103.795C107.381 100.235 106.381 95.8788 106.381 90.7273C106.381 85.5455 107.381 81.1818 109.381 77.6364C111.396 74.0758 114.108 71.3864 117.517 69.5682C120.941 67.7348 124.775 66.8182 129.017 66.8182C133.229 66.8182 137.047 67.7348 140.472 69.5682C143.896 71.3864 146.616 74.0758 148.631 77.6364C150.646 81.1818 151.653 85.5455 151.653 90.7273ZM138.653 90.7273C138.653 87.9394 138.282 85.5909 137.54 83.6818C136.812 81.7576 135.729 80.303 134.29 79.3182C132.866 78.3182 131.108 77.8182 129.017 77.8182C126.926 77.8182 125.161 78.3182 123.722 79.3182C122.297 80.303 121.214 81.7576 120.472 83.6818C119.744 85.5909 119.381 87.9394 119.381 90.7273C119.381 93.5152 119.744 95.8712 120.472 97.7955C121.214 99.7045 122.297 101.159 123.722 102.159C125.161 103.144 126.926 103.636 129.017 103.636C131.108 103.636 132.866 103.144 134.29 102.159C135.729 101.159 136.812 99.7045 137.54 97.7955C138.282 95.8712 138.653 93.5152 138.653 90.7273Z" fill="#161616"/>
<mask id="path-6-outside-1_526_109" maskUnits="userSpaceOnUse" x="47" y="211" width="157" height="39" fill="black">
<rect fill="white" x="47" y="211" width="157" height="39"/>
<path d="M58.6761 248L48.3807 213.091H58.9489L63.7216 234.568H63.9943L69.6534 213.091H77.9716L83.6307 234.636H83.9034L88.6761 213.091H99.2443L88.9489 248H79.8807L73.9489 228.5H73.6761L67.7443 248H58.6761ZM133.928 230.545C133.928 234.432 133.172 237.71 131.661 240.381C130.149 243.04 128.109 245.057 125.541 246.432C122.973 247.795 120.109 248.477 116.95 248.477C113.768 248.477 110.893 247.79 108.325 246.415C105.768 245.028 103.734 243.006 102.223 240.347C100.723 237.676 99.973 234.409 99.973 230.545C99.973 226.659 100.723 223.386 102.223 220.727C103.734 218.057 105.768 216.04 108.325 214.676C110.893 213.301 113.768 212.614 116.95 212.614C120.109 212.614 122.973 213.301 125.541 214.676C128.109 216.04 130.149 218.057 131.661 220.727C133.172 223.386 133.928 226.659 133.928 230.545ZM124.178 230.545C124.178 228.455 123.899 226.693 123.342 225.261C122.797 223.818 121.984 222.727 120.905 221.989C119.837 221.239 118.518 220.864 116.95 220.864C115.382 220.864 114.058 221.239 112.979 221.989C111.911 222.727 111.098 223.818 110.541 225.261C109.996 226.693 109.723 228.455 109.723 230.545C109.723 232.636 109.996 234.403 110.541 235.847C111.098 237.278 111.911 238.369 112.979 239.119C114.058 239.858 115.382 240.227 116.95 240.227C118.518 240.227 119.837 239.858 120.905 239.119C121.984 238.369 122.797 237.278 123.342 235.847C123.899 234.403 124.178 232.636 124.178 230.545ZM138.312 248V213.091H153.381C155.972 213.091 158.239 213.562 160.182 214.506C162.125 215.449 163.636 216.807 164.716 218.58C165.795 220.352 166.335 222.477 166.335 224.955C166.335 227.455 165.778 229.562 164.665 231.278C163.563 232.994 162.011 234.29 160.011 235.165C158.023 236.04 155.699 236.477 153.04 236.477H144.04V229.114H151.131C152.244 229.114 153.193 228.977 153.977 228.705C154.773 228.42 155.381 227.972 155.801 227.358C156.233 226.744 156.449 225.943 156.449 224.955C156.449 223.955 156.233 223.142 155.801 222.517C155.381 221.881 154.773 221.415 153.977 221.119C153.193 220.812 152.244 220.659 151.131 220.659H147.79V248H138.312ZM158.767 231.977L167.494 248H157.199L148.676 231.977H158.767ZM170.375 248V213.091H179.852V227.205H180.33L190.83 213.091H201.875L190.08 228.636L202.148 248H190.83L182.989 234.909L179.852 239V248H170.375Z"/>
</mask>
<path d="M58.6761 248L57.717 248.283L57.9285 249H58.6761V248ZM48.3807 213.091V212.091H47.0432L47.4215 213.374L48.3807 213.091ZM58.9489 213.091L59.9251 212.874L59.751 212.091H58.9489V213.091ZM63.7216 234.568L62.7454 234.785L62.9194 235.568H63.7216V234.568ZM63.9943 234.568V235.568H64.765L64.9613 234.823L63.9943 234.568ZM69.6534 213.091V212.091H68.8828L68.6864 212.836L69.6534 213.091ZM77.9716 213.091L78.9388 212.837L78.7429 212.091H77.9716V213.091ZM83.6307 234.636L82.6635 234.89L82.8594 235.636H83.6307V234.636ZM83.9034 234.636V235.636H84.7061L84.8797 234.853L83.9034 234.636ZM88.6761 213.091V212.091H87.8734L87.6998 212.875L88.6761 213.091ZM99.2443 213.091L100.203 213.374L100.582 212.091H99.2443V213.091ZM88.9489 248V249H89.6965L89.908 248.283L88.9489 248ZM79.8807 248L78.924 248.291L79.1396 249H79.8807V248ZM73.9489 228.5L74.9056 228.209L74.6899 227.5H73.9489V228.5ZM73.6761 228.5V227.5H72.9351L72.7194 228.209L73.6761 228.5ZM67.7443 248V249H68.4854L68.701 248.291L67.7443 248ZM59.6353 247.717L49.3398 212.808L47.4215 213.374L57.717 248.283L59.6353 247.717ZM48.3807 214.091H58.9489V212.091H48.3807V214.091ZM57.9727 213.308L62.7454 234.785L64.6978 234.351L59.9251 212.874L57.9727 213.308ZM63.7216 235.568H63.9943V233.568H63.7216V235.568ZM64.9613 234.823L70.6204 213.346L68.6864 212.836L63.0273 234.313L64.9613 234.823ZM69.6534 214.091H77.9716V212.091H69.6534V214.091ZM77.0044 213.345L82.6635 234.89L84.5979 234.382L78.9388 212.837L77.0044 213.345ZM83.6307 235.636H83.9034V233.636H83.6307V235.636ZM84.8797 234.853L89.6525 213.307L87.6998 212.875L82.9271 234.42L84.8797 234.853ZM88.6761 214.091H99.2443V212.091H88.6761V214.091ZM98.2852 212.808L87.9897 247.717L89.908 248.283L100.203 213.374L98.2852 212.808ZM88.9489 247H79.8807V249H88.9489V247ZM80.8374 247.709L74.9056 228.209L72.9921 228.791L78.924 248.291L80.8374 247.709ZM73.9489 227.5H73.6761V229.5H73.9489V227.5ZM72.7194 228.209L66.7876 247.709L68.701 248.291L74.6329 228.791L72.7194 228.209ZM67.7443 247H58.6761V249H67.7443V247ZM131.661 240.381L132.53 240.875L132.531 240.873L131.661 240.381ZM125.541 246.432L126.01 247.315L126.013 247.313L125.541 246.432ZM108.325 246.415L107.849 247.294L107.853 247.296L108.325 246.415ZM102.223 240.347L101.351 240.836L101.354 240.841L102.223 240.347ZM102.223 220.727L101.353 220.235L101.352 220.236L102.223 220.727ZM108.325 214.676L108.796 215.558L108.797 215.558L108.325 214.676ZM125.541 214.676L125.069 215.558L125.072 215.559L125.541 214.676ZM131.661 220.727L130.79 221.22L130.791 221.221L131.661 220.727ZM123.342 225.261L122.407 225.615L122.41 225.624L123.342 225.261ZM120.905 221.989L120.33 222.807L120.34 222.814L120.905 221.989ZM112.979 221.989L113.547 222.811L113.549 222.81L112.979 221.989ZM110.541 225.261L109.608 224.901L109.607 224.905L110.541 225.261ZM110.541 235.847L109.606 236.2L109.609 236.209L110.541 235.847ZM112.979 239.119L112.404 239.938L112.414 239.945L112.979 239.119ZM120.905 239.119L121.474 239.942L121.475 239.941L120.905 239.119ZM123.342 235.847L122.409 235.487L122.408 235.491L123.342 235.847ZM132.928 230.545C132.928 234.304 132.197 237.403 130.79 239.888L132.531 240.873C134.147 238.018 134.928 234.559 134.928 230.545H132.928ZM130.791 239.887C129.368 242.39 127.463 244.269 125.069 245.55L126.013 247.313C128.756 245.845 130.93 243.689 132.53 240.875L130.791 239.887ZM125.072 245.549C122.661 246.829 119.96 247.477 116.95 247.477V249.477C120.258 249.477 123.285 248.762 126.01 247.315L125.072 245.549ZM116.95 247.477C113.918 247.477 111.207 246.823 108.797 245.533L107.853 247.296C110.58 248.756 113.619 249.477 116.95 249.477V247.477ZM108.802 245.536C106.418 244.243 104.516 242.358 103.092 239.852L101.354 240.841C102.952 243.654 105.119 245.814 107.849 247.294L108.802 245.536ZM103.095 239.857C101.698 237.37 100.973 234.282 100.973 230.545H98.973C98.973 234.537 99.7479 237.982 101.351 240.836L103.095 239.857ZM100.973 230.545C100.973 226.785 101.699 223.692 103.094 221.219L101.352 220.236C99.7474 223.081 98.973 226.533 98.973 230.545H100.973ZM103.093 221.22C104.517 218.704 106.417 216.827 108.796 215.558L107.855 213.794C105.12 215.252 102.952 217.409 101.353 220.235L103.093 221.22ZM108.797 215.558C111.207 214.267 113.918 213.614 116.95 213.614V211.614C113.619 211.614 110.58 212.335 107.853 213.795L108.797 215.558ZM116.95 213.614C119.959 213.614 122.658 214.267 125.069 215.558L126.013 213.795C123.288 212.335 120.26 211.614 116.95 211.614V213.614ZM125.072 215.559C127.463 216.829 129.367 218.706 130.79 221.22L132.531 220.235C130.931 217.408 128.756 215.251 126.01 213.793L125.072 215.559ZM130.791 221.221C132.197 223.694 132.928 226.786 132.928 230.545H134.928C134.928 226.532 134.147 223.078 132.53 220.233L130.791 221.221ZM125.178 230.545C125.178 228.372 124.889 226.48 124.274 224.899L122.41 225.624C122.909 226.907 123.178 228.537 123.178 230.545H125.178ZM124.278 224.908C123.673 223.308 122.747 222.037 121.47 221.163L120.34 222.814C121.222 223.417 121.921 224.328 122.407 225.615L124.278 224.908ZM121.479 221.17C120.211 220.28 118.682 219.864 116.95 219.864V221.864C118.355 221.864 119.462 222.197 120.33 222.807L121.479 221.17ZM116.95 219.864C115.218 219.864 113.685 220.28 112.408 221.167L113.549 222.81C114.431 222.197 115.546 221.864 116.95 221.864V219.864ZM112.41 221.166C111.147 222.039 110.223 223.307 109.608 224.901L111.474 225.621C111.973 224.329 112.674 223.415 113.547 222.811L112.41 221.166ZM109.607 224.905C109.005 226.484 108.723 228.374 108.723 230.545H110.723C110.723 228.535 110.986 226.902 111.476 225.617L109.607 224.905ZM108.723 230.545C108.723 232.717 109.005 234.612 109.606 236.2L111.477 235.493C110.986 234.195 110.723 232.556 110.723 230.545H108.723ZM109.609 236.209C110.225 237.792 111.147 239.055 112.404 239.938L113.553 238.301C112.674 237.683 111.971 236.765 111.473 235.484L109.609 236.209ZM112.414 239.945C113.691 240.818 115.221 241.227 116.95 241.227V239.227C115.543 239.227 114.426 238.898 113.543 238.294L112.414 239.945ZM116.95 241.227C118.679 241.227 120.206 240.818 121.474 239.942L120.336 238.297C119.467 238.898 118.358 239.227 116.95 239.227V241.227ZM121.475 239.941C122.746 239.058 123.672 237.791 124.277 236.203L122.408 235.491C121.922 236.766 121.222 237.681 120.334 238.298L121.475 239.941ZM124.275 236.207C124.889 234.616 125.178 232.719 125.178 230.545H123.178C123.178 232.554 122.909 234.191 122.409 235.487L124.275 236.207ZM138.312 248H137.312V249H138.312V248ZM138.312 213.091V212.091H137.312V213.091H138.312ZM164.716 218.58L165.57 218.059L164.716 218.58ZM164.665 231.278L163.826 230.734L163.823 230.738L164.665 231.278ZM160.011 235.165L159.611 234.249L159.609 234.249L160.011 235.165ZM144.04 236.477H143.04V237.477H144.04V236.477ZM144.04 229.114V228.114H143.04V229.114H144.04ZM153.977 228.705L154.306 229.649L154.314 229.646L153.977 228.705ZM155.801 227.358L154.983 226.782L154.976 226.793L155.801 227.358ZM155.801 222.517L154.967 223.068L154.973 223.077L154.978 223.085L155.801 222.517ZM153.977 221.119L153.613 222.051L153.621 222.054L153.629 222.057L153.977 221.119ZM147.79 220.659V219.659H146.79V220.659H147.79ZM147.79 248V249H148.79V248H147.79ZM158.767 231.977L159.645 231.499L159.361 230.977H158.767V231.977ZM167.494 248V249H169.178L168.372 247.522L167.494 248ZM157.199 248L156.316 248.47L156.598 249H157.199V248ZM148.676 231.977V230.977H147.012L147.793 232.447L148.676 231.977ZM139.312 248V213.091H137.312V248H139.312ZM138.312 214.091H153.381V212.091H138.312V214.091ZM153.381 214.091C155.85 214.091 157.963 214.54 159.745 215.405L160.618 213.606C158.515 212.585 156.093 212.091 153.381 212.091V214.091ZM159.745 215.405C161.523 216.268 162.886 217.498 163.862 219.1L165.57 218.059C164.386 216.116 162.727 214.629 160.618 213.606L159.745 215.405ZM163.862 219.1C164.829 220.688 165.335 222.625 165.335 224.955H167.335C167.335 222.33 166.762 220.017 165.57 218.059L163.862 219.1ZM165.335 224.955C165.335 227.305 164.813 229.213 163.826 230.734L165.504 231.823C166.744 229.912 167.335 227.605 167.335 224.955H165.335ZM163.823 230.738C162.835 232.276 161.443 233.447 159.611 234.249L160.412 236.081C162.58 235.133 164.29 233.713 165.506 231.819L163.823 230.738ZM159.609 234.249C157.772 235.058 155.59 235.477 153.04 235.477V237.477C155.807 237.477 158.273 237.022 160.414 236.08L159.609 234.249ZM153.04 235.477H144.04V237.477H153.04V235.477ZM145.04 236.477V229.114H143.04V236.477H145.04ZM144.04 230.114H151.131V228.114H144.04V230.114ZM151.131 230.114C152.32 230.114 153.387 229.969 154.306 229.649L153.649 227.76C152.999 227.986 152.168 228.114 151.131 228.114V230.114ZM154.314 229.646C155.28 229.301 156.071 228.734 156.626 227.923L154.976 226.793C154.691 227.209 154.266 227.54 153.641 227.763L154.314 229.646ZM156.619 227.933C157.202 227.105 157.449 226.084 157.449 224.955H155.449C155.449 225.802 155.264 226.383 154.983 226.782L156.619 227.933ZM157.449 224.955C157.449 223.815 157.203 222.786 156.624 221.949L154.978 223.085C155.263 223.498 155.449 224.094 155.449 224.955H157.449ZM156.635 221.966C156.085 221.133 155.296 220.543 154.325 220.182L153.629 222.057C154.249 222.287 154.676 222.629 154.967 223.068L156.635 221.966ZM154.342 220.188C153.411 219.824 152.331 219.659 151.131 219.659V221.659C152.158 221.659 152.976 221.801 153.613 222.051L154.342 220.188ZM151.131 219.659H147.79V221.659H151.131V219.659ZM146.79 220.659V248H148.79V220.659H146.79ZM147.79 247H138.312V249H147.79V247ZM157.889 232.456L166.616 248.478L168.372 247.522L159.645 231.499L157.889 232.456ZM167.494 247H157.199V249H167.494V247ZM158.082 247.53L149.559 231.508L147.793 232.447L156.316 248.47L158.082 247.53ZM148.676 232.977H158.767V230.977H148.676V232.977ZM170.375 248H169.375V249H170.375V248ZM170.375 213.091V212.091H169.375V213.091H170.375ZM179.852 213.091H180.852V212.091H179.852V213.091ZM179.852 227.205H178.852V228.205H179.852V227.205ZM180.33 227.205V228.205H180.832L181.132 227.801L180.33 227.205ZM190.83 213.091V212.091H190.327L190.027 212.494L190.83 213.091ZM201.875 213.091L202.672 213.695L203.889 212.091H201.875V213.091ZM190.08 228.636L189.283 228.032L188.867 228.581L189.231 229.165L190.08 228.636ZM202.148 248V249H203.949L202.996 247.471L202.148 248ZM190.83 248L189.972 248.514L190.263 249H190.83V248ZM182.989 234.909L183.847 234.395L183.09 233.133L182.195 234.301L182.989 234.909ZM179.852 239L179.059 238.392L178.852 238.661V239H179.852ZM179.852 248V249H180.852V248H179.852ZM171.375 248V213.091H169.375V248H171.375ZM170.375 214.091H179.852V212.091H170.375V214.091ZM178.852 213.091V227.205H180.852V213.091H178.852ZM179.852 228.205H180.33V226.205H179.852V228.205ZM181.132 227.801L191.632 213.688L190.027 212.494L179.527 226.608L181.132 227.801ZM190.83 214.091H201.875V212.091H190.83V214.091ZM201.078 212.486L189.283 228.032L190.876 229.241L202.672 213.695L201.078 212.486ZM189.231 229.165L201.299 248.529L202.996 247.471L190.928 228.107L189.231 229.165ZM202.148 247H190.83V249H202.148V247ZM191.687 247.486L183.847 234.395L182.131 235.423L189.972 248.514L191.687 247.486ZM182.195 234.301L179.059 238.392L180.646 239.608L183.782 235.518L182.195 234.301ZM178.852 239V248H180.852V239H178.852ZM179.852 247H170.375V249H179.852V247Z" fill="white" mask="url(#path-6-outside-1_526_109)"/>
<defs>
<linearGradient id="paint0_linear_526_109" x1="222.501" y1="148.193" x2="28.4654" y2="148.193" gradientUnits="userSpaceOnUse">
<stop offset="0.0198262" stop-color="#161616"/>
<stop offset="1" stop-color="#1CCDAA"/>
</linearGradient>
</defs>
</svg>
